<?xml version="1.0" standalone="no"?>
<!DOCTYPE svg PUBLIC "-//W3C//DTD SVG 20010904//EN"
 "http://www.w3.org/TR/2001/REC-SVG-20010904/DTD/svg10.dtd">
<svg version="1.0" xmlns="http://www.w3.org/2000/svg"
 width="512.000000pt" height="512.000000pt" viewBox="0 0 512.000000 512.000000"
 preserveAspectRatio="xMidYMid meet">
<metadata>
Created by potrace 1.14, written by Peter Selinger 2001-2017
</metadata>
<g transform="translate(0.000000,512.000000) scale(0.100000,-0.100000)"
fill="#000000" stroke="none">
<path d="M2365 5111 c3 -5 1 -12 -3 -15 -10 -6 -8 -73 1 -82 3 -4 2 -17 -3
-30 -6 -15 -6 -26 1 -30 6 -3 6 -11 1 -17 -9 -13 -9 -74 1 -83 3 -3 2 -16 -2
-28 -9 -24 -8 -67 2 -83 4 -7 4 -14 -1 -17 -9 -5 -9 -47 0 -62 3 -5 2 -18 -2
-28 -3 -11 -3 -37 0 -58 4 -21 3 -41 -1 -44 -5 -3 -6 -17 -2 -32 3 -15 6 -32
5 -39 -5 -39 -4 -104 1 -110 7 -7 385 -8 393 -1 4 5 6 46 3 78 -1 13 0 164 2
304 0 28 2 53 5 57 2 4 0 10 -6 14 -6 4 -7 11 -4 17 5 8 7 125 4 276 l0 22
-201 0 c-121 0 -198 -4 -194 -9z"/>
<path d="M747 4367 l-138 -139 272 -273 273 -272 142 141 142 141 -261 263
c-144 144 -269 266 -277 271 -11 6 -50 -27 -153 -132z"/>
<path d="M3953 4238 l-272 -273 138 -137 c76 -76 142 -138 147 -138 5 0 130
121 278 269 l269 269 -142 141 c-78 78 -143 141 -144 141 -1 0 -124 -123 -274
-272z"/>
<path d="M2458 3935 c-2 -2 -32 -6 -68 -9 -239 -24 -516 -142 -705 -301 -55
-47 -165 -153 -165 -160 0 -2 -10 -15 -22 -29 -74 -79 -199 -292 -222 -376 -4
-14 -11 -34 -16 -45 -5 -11 -15 -40 -21 -65 -7 -25 -14 -49 -15 -55 -2 -5 -6
-23 -9 -39 -3 -16 -8 -33 -11 -37 -22 -36 -22 -451 0 -488 4 -7 6 -15 3 -17
-9 -9 36 -170 76 -269 39 -100 63 -146 139 -260 143 -218 379 -409 625 -503
351 -135 722 -130 1063 15 210 90 431 263 550 433 14 19 28 37 31 40 19 18
109 180 108 197 -1 3 4 9 9 12 9 6 65 155 77 204 3 12 12 49 19 82 8 33 15 60
16 60 5 0 14 155 14 235 -1 138 -12 241 -40 338 -8 31 -19 71 -23 87 -13 48
-72 186 -103 238 -15 26 -28 52 -28 57 0 6 -4 10 -9 10 -5 0 -12 9 -16 19 -6
20 -48 79 -85 118 -11 12 -20 25 -20 28 0 3 -35 40 -79 83 -71 70 -198 168
-261 203 -14 8 -27 16 -30 19 -22 24 -229 106 -340 135 -52 14 -72 17 -160 31
-40 6 -277 14 -282 9z"/>
<path d="M4439 2762 c-72 -2 -87 -6 -91 -20 -2 -9 -3 -98 -3 -197 l1 -180 386
-3 386 -2 0 200 1 200 -212 0 c-117 1 -250 2 -297 3 -47 1 -124 1 -171 -1z"/>
<path d="M0 2560 l0 -200 388 0 387 0 0 200 0 200 -387 0 -388 0 0 -200z"/>
<path d="M3824 1296 l-142 -141 273 -273 272 -274 143 142 142 141 -273 274
-274 273 -141 -142z"/>
<path d="M876 1161 l-269 -269 143 -142 143 -142 268 269 c148 147 269 272
269 277 0 11 -264 276 -276 276 -5 0 -130 -121 -278 -269z"/>
<path d="M2361 740 c2 -20 0 -40 -4 -46 -3 -6 -2 -25 2 -42 5 -17 7 -33 4 -36
-8 -8 -7 -191 1 -204 4 -7 3 -12 -1 -12 -5 0 -8 -12 -7 -27 1 -16 3 -28 4 -28
6 0 5 -47 0 -50 -8 -5 -5 -73 3 -81 3 -4 2 -17 -3 -30 -6 -15 -6 -26 1 -30 6
-3 6 -11 1 -17 -9 -13 -9 -74 1 -83 3 -3 2 -17 -3 -30 l-10 -24 205 0 205 0 1
53 c0 28 0 75 -1 102 -1 84 1 148 6 156 2 4 0 10 -6 14 -6 4 -7 11 -4 17 8 13
7 295 -1 308 -4 6 -2 10 3 10 8 0 5 100 -4 109 -1 2 -91 4 -199 5 l-196 1 2
-35z"/>
</g>
</svg>
